# xmcd
#
# Track frame offsets:
#	150
#	13599
#	30126
#	45809
#	59040
#	78408
#	94667
#	111510
#	125885
#	138848
#	156733
#
# Disc length: 2288 seconds
#
# Revision: 1
# Processed by: cddbd v1.5.2PL0 Copyright (c) Steve Scherf et al.
# Submitted via: audiograbber 1.83.01
#
DISCID=8e08ee0b
DTITLE=Josh Ward - More Than I Deserve
DYEAR=2018
DGENRE=Country
TTITLE0=Alll About Lovin'
TTITLE1=Ain't It Baby
TTITLE2=Say Hello to Goodbye
TTITLE3=Home Away From Home
TTITLE4=The Devil Don't Scare Me
TTITLE5=A Cowboy Can
TTITLE6=Another Heartache
TTITLE7=God Made A Woman
TTITLE8=Loving Right
TTITLE9=One More Shot Of Whiskey
TTITLE10=More Than I Deserved
EXTD=UPC: 6 62582 73512 3
EXTT0=
EXTT1=
EXTT2=
EXTT3=
EXTT4=
EXTT5=
EXTT6=
EXTT7=
EXTT8=
EXTT9=
EXTT10=
PLAYORDER=
